PathFileType	4	(X/Y/Z)	D:\MotionData\NordSprintingStudy\Test 2\Edited\COP_Left_Board_FP2000002.trc
DataRate	CameraRate	NumFrames	NumMarkers	Units	OrigDataRate	OrigDataStartFrame	OrigNumFrames
200.00	200.00	     30	5	mm	200.00	4762	     12696
Frame#	Time	M1			M2			M3			M4			M5			
		X1	Y1	Z1	X2	Y2	Z2	X3	Y3	Z3	X4	Y4	Z4	X5	Y5	Z5	

4762	23.805	819.61719	700.37146	460.02570	614.51544	453.53192	469.15384	621.79962	454.89725	669.80914	636.70056	457.28372	1069.47864	841.10931	704.76300	1059.79602	
4763	23.810	819.55292	700.37750	460.04504	614.50311	453.50757	469.18182	621.75208	454.88028	669.82867	636.56067	457.27530	1069.49780	840.97375	704.77533	1059.80688	
4764	23.815	819.47913	700.41650	460.06061	614.47272	453.47421	469.15695	621.69507	454.83890	669.77771	636.41907	457.23477	1069.47278	840.78357	704.80518	1059.82690	
4765	23.820	819.38947	700.42944	460.10779	614.53058	453.42773	469.10693	621.63403	454.79926	669.76190	636.30750	457.17822	1069.42126	840.56940	704.81683	1059.88306	
4766	23.825	819.30109	700.46466	460.08563	614.54547	453.37720	469.08948	621.58374	454.72623	669.67279	636.16278	457.11877	1069.42444	840.36816	704.85565	1059.89563	
4767	23.830	819.17932	700.49542	460.14664	614.52991	453.33228	469.09442	621.50848	454.66473	669.68994	635.99469	457.05664	1069.41895	840.06671	704.86749	1059.95740	
4768	23.835	819.03455	700.53894	460.18259	614.57489	453.26663	469.00195	621.47766	454.59027	669.60541	635.83704	456.95358	1069.30493	839.77441	704.91064	1060.00208	
4769	23.840	818.94775	700.58636	460.20874	614.56549	453.18332	468.99994	621.41870	454.52417	669.60712	635.67285	456.84406	1069.31055	839.51801	704.92529	1060.00000	
4770	23.845	818.80927	700.64227	460.24521	614.57910	453.12308	468.98114	621.33362	454.44455	669.59021	635.49548	456.75275	1069.31091	839.09216	705.01495	1060.00708	
4771	23.850	818.67413	700.69763	460.31277	614.63440	453.06024	468.89804	621.35797	454.35178	669.50861	635.40070	456.65173	1069.23645	838.92401	704.99176	1060.13220	
4772	23.855	818.55762	700.83197	460.28632	614.62421	452.94504	468.86481	621.31396	454.25400	669.45099	635.25208	456.51715	1069.21948	838.58545	705.02661	1060.15527	
4773	23.860	818.36304	700.90070	460.33127	614.67786	452.84344	468.82327	621.30225	454.16000	669.48358	635.11890	456.36298	1069.19153	838.18829	705.05493	1060.23486	
4774	23.865	818.13293	701.00385	460.41754	614.76349	452.68219	468.76572	621.32733	454.01373	669.42767	635.00031	456.16559	1069.13000	837.75836	705.08527	1060.33704	
4775	23.870	817.92804	701.08136	460.45938	614.82843	452.51697	468.73929	621.33594	453.82263	669.40582	634.85822	455.94177	1069.11902	837.32458	705.13867	1060.36365	
4776	23.875	817.67981	701.19470	460.56573	614.98230	452.36246	468.64682	621.40759	453.62375	669.33600	634.77765	455.70319	1069.05908	836.83356	705.18329	1060.47559	
4777	23.880	817.39697	701.35455	460.60010	615.12286	452.14780	468.63501	621.47729	453.40433	669.30768	634.69574	455.42172	1069.03308	836.19482	705.33948	1060.43335	
4778	23.885	817.05103	701.50012	460.68155	615.24225	451.95523	468.59872	621.51544	453.22058	669.24969	634.69696	455.10925	1068.98975	835.70117	705.39081	1060.49902	
4779	23.890	816.64905	701.69299	460.74106	615.43542	451.71719	468.51843	621.66333	452.91446	669.21277	634.69208	454.76361	1068.94202	835.22406	705.48218	1060.59912	
4780	23.895	816.34412	701.89148	460.76245	616.35168	451.57925	468.55505	621.82080	452.59351	669.14655	634.75409	454.40753	1068.89392	834.96222	705.48431	1060.76013	
4781	23.900	815.97821	702.08716	460.85028	616.51685	451.28918	468.53717	622.00940	452.27313	669.14160	634.81183	454.02176	1068.85779	834.23047	705.40869	1060.64722	
4782	23.905	815.63721	702.32855	460.94519	616.71631	450.99884	468.44275	622.21338	451.95746	669.03204	634.90021	453.65076	1068.78113	833.41266	705.61224	1060.64661	
4783	23.910	815.36572	702.51172	461.01477	616.90930	450.70840	468.39658	622.37872	451.64606	669.01044	634.94812	453.30182	1068.74475	833.19843	705.65930	1060.81348	
4784	23.915	815.06262	702.70972	461.06473	617.11755	450.43744	468.39642	622.59930	451.36688	668.96582	635.01160	452.96222	1068.70642	832.69666	705.77332	1060.91394	
4785	23.920	814.68085	702.90192	461.16290	617.37317	450.16870	468.35223	622.80963	451.06522	668.90613	635.09204	452.61014	1068.63257	832.27911	705.86963	1061.02173	
4786	23.925	814.30389	703.10852	461.20557	617.54919	449.92221	468.31689	622.93787	450.78345	668.86987	635.25104	452.23749	1068.65454	831.56055	706.11139	1061.01880	
4787	23.930	813.95569	703.28937	461.24359	617.77246	449.66568	468.28622	623.12976	450.49756	668.86719	635.37823	451.86539	1068.62805	831.18707	706.20959	1061.03040	
4788	23.935	813.65356	703.47058	461.28973	618.04633	449.42844	468.21820	623.39673	450.18695	668.77716	635.58734	451.50867	1068.54138	830.83282	706.28210	1061.09277	
4789	23.940	813.42413	703.64032	461.29007	618.28284	449.18326	468.20169	623.66144	449.91519	668.75153	635.77405	451.17374	1068.52832	830.48871	706.36145	1061.14905	
4790	23.945	813.17999	703.81586	461.31961	618.55426	448.94818	468.13724	623.87329	449.66037	668.71881	636.00696	450.84558	1068.46924	830.19220	706.45508	1061.18555	
4791	23.950	812.94434	703.99481	461.35956	618.75580	448.72397	468.10812	624.11456	449.37158	668.66681	636.17645	450.50900	1068.46912	829.87256	706.53204	1061.20483	
